<?xml version="1.0" standalone="no"?>
<!DOCTYPE svg PUBLIC "-//W3C//DTD SVG 20010904//EN"
 "http://www.w3.org/TR/2001/REC-SVG-20010904/DTD/svg10.dtd">
<svg version="1.0" xmlns="http://www.w3.org/2000/svg"
 width="256.000000pt" height="256.000000pt" viewBox="0 0 256.000000 256.000000"
 preserveAspectRatio="xMidYMid meet">
<metadata>
Created by potrace 1.14, written by Peter Selinger 2001-2017
</metadata>
<g transform="translate(0.000000,256.000000) scale(0.100000,-0.100000)"
fill="#000000" stroke="none">
<path d="M951 2449 c-95 -17 -123 -26 -175 -57 -65 -41 -121 -87 -170 -140
-17 -18 -52 -54 -77 -80 -35 -36 -48 -58 -54 -90 -4 -27 -3 -48 3 -54 8 -8 5
-22 -9 -49 -10 -21 -19 -46 -19 -55 0 -9 -9 -18 -21 -21 -20 -6 -21 -10 -17
-152 4 -155 8 -171 89 -322 10 -20 19 -43 19 -51 0 -27 61 -108 86 -114 14 -4
30 -14 37 -23 6 -9 28 -27 48 -39 19 -12 48 -33 63 -47 36 -34 151 -91 212
-106 27 -7 57 -16 67 -21 20 -10 87 0 87 13 0 5 -7 9 -15 9 -18 0 -37 43 -29
64 6 16 36 26 83 26 53 0 111 21 132 48 l19 24 96 -16 c52 -9 104 -16 116 -16
27 0 115 85 121 118 3 15 31 61 62 102 68 89 73 100 80 187 4 38 13 134 22
215 8 82 12 159 9 172 -3 14 -18 39 -33 57 -16 18 -35 51 -43 73 -12 32 -22
43 -48 51 -20 6 -46 26 -65 50 -17 23 -46 52 -64 66 -18 13 -33 29 -33 35 0
19 -98 104 -138 121 -47 20 -189 42 -267 42 -33 -1 -111 -10 -174 -20z m304
-13 c109 -19 168 -41 199 -76 32 -36 32 -40 3 -40 -13 0 -28 -5 -35 -12 -8 -8
-12 -9 -12 -1 0 6 -12 16 -27 21 -26 10 -23 10 22 11 l50 1 -27 25 c-15 14
-37 25 -50 25 -13 0 -63 5 -113 11 -127 16 -387 -4 -427 -33 -16 -11 -25 -24
-22 -30 4 -7 2 -8 -4 -4 -19 12 -184 -118 -215 -169 -15 -26 -24 -51 -21 -57
4 -6 3 -8 -3 -5 -5 3 -17 -7 -27 -24 -9 -16 -26 -29 -36 -29 -18 0 -18 2 -5
41 10 28 48 73 130 155 64 62 121 114 126 114 5 0 22 9 37 20 33 24 234 67
317 69 33 0 96 -6 140 -13z m260 -136 c-3 -5 -12 -10 -18 -10 -7 0 -6 4 3 10
19 12 23 12 15 0z m-217 -34 c-9 -6 -17 -20 -19 -31 -2 -10 -15 -22 -29 -25
-14 -4 -24 -12 -22 -18 1 -7 -9 -12 -23 -12 -13 0 -28 -8 -34 -17 -8 -15 -12
-16 -34 -4 -39 21 -70 11 -83 -28 -6 -18 -18 -38 -27 -43 -22 -12 -21 -2 4 38
11 19 17 39 13 45 -4 7 -3 10 2 6 5 -3 32 1 59 8 31 7 52 9 56 3 8 -13 54 17
104 67 22 22 42 36 44 31 2 -5 -3 -14 -11 -20z m87 24 c-3 -5 -12 -10 -20 -10
-8 0 -26 -24 -42 -52 -15 -29 -36 -54 -45 -56 -25 -5 -23 14 2 21 11 3 20 14
20 24 0 24 54 83 75 83 9 0 13 -4 10 -10z m-543 -35 c43 -4 75 -11 72 -16 -3
-5 -10 -7 -15 -3 -5 3 -42 0 -82 -6 -40 -6 -87 -14 -105 -16 -18 -3 -48 -19
-68 -36 -56 -50 -49 -26 11 35 45 45 61 55 83 53 15 -2 62 -7 104 -11z m50
-56 c-2 -8 -7 -35 -11 -61 -8 -47 -34 -98 -51 -98 -5 0 -28 23 -51 50 -23 28
-46 50 -51 50 -13 0 -41 30 -35 37 3 3 36 -20 74 -50 l68 -56 19 39 c19 38 19
40 2 59 -10 11 -28 22 -40 24 -17 3 -15 5 14 14 44 14 66 11 62 -8z m37 -99
c1 -32 -5 -41 -49 -74 -27 -21 -50 -41 -50 -45 0 -4 -6 -8 -14 -8 -7 0 4 18
25 40 44 47 69 93 70 134 0 24 1 26 9 8 5 -11 9 -36 9 -55z m286 40 c-25 -27
-50 -28 -33 0 11 18 37 31 47 23 2 -1 -4 -12 -14 -23z m-85 -1 c12 -9 12 -10
-4 -5 -11 4 -26 0 -37 -10 -16 -14 -19 -15 -19 -2 0 29 31 38 60 17z m-410
-14 c17 -9 30 -21 30 -29 0 -17 -39 -14 -52 5 -7 11 -9 9 -5 -8 6 -29 -4 -30
-21 -2 -10 16 -10 24 -1 35 14 17 14 17 49 -1z m1019 -75 c26 -54 26 -58 24
-243 -2 -104 -8 -207 -14 -230 -6 -23 -32 -80 -59 -127 -26 -47 -55 -107 -65
-133 -10 -26 -28 -53 -39 -58 -12 -6 -31 -22 -43 -36 l-21 -26 -61 23 c-33 12
-72 20 -86 18 -14 -3 -28 -1 -31 3 -3 5 7 9 23 9 40 1 132 24 174 45 39 19 74
68 63 88 -4 6 -4 9 1 5 4 -4 19 16 32 45 21 44 23 55 12 72 -11 18 -10 18 3 7
13 -11 18 -6 33 30 9 24 28 67 42 95 24 52 24 56 17 217 l-7 164 -30 32 -30
32 -13 -28 c-7 -16 -13 -22 -13 -14 0 8 6 26 13 39 7 13 11 33 8 45 l-5 21 23
-20 c12 -11 34 -45 49 -75z m-1134 70 c3 -5 1 -10 -4 -10 -6 0 -11 5 -11 10 0
6 2 10 4 10 3 0 8 -4 11 -10z m533 -18 c7 -5 11 -15 8 -23 -2 -8 -7 -26 -10
-41 -4 -16 -10 -28 -15 -28 -5 0 -4 14 2 31 10 26 9 32 -6 43 -9 7 -17 16 -17
20 0 9 22 7 38 -2z m-522 -38 c-9 -28 -12 -31 -14 -14 -3 17 12 50 23 50 1 0
-3 -16 -9 -36z m72 -14 c17 -16 25 -30 18 -30 -7 0 -22 14 -34 30 -13 17 -21
30 -18 30 2 0 18 -13 34 -30z m942 10 c0 -11 -7 -20 -15 -20 -13 0 -14 4 -5
20 6 11 13 20 15 20 3 0 5 -9 5 -20z m-884 -8 c-3 -3 -1 -11 6 -19 8 -10 8
-17 0 -25 -9 -9 -12 -8 -12 4 0 8 -7 21 -15 28 -12 10 -13 15 -3 21 13 8 33 1
24 -9z m-186 -43 c0 -19 -1 -19 -26 -2 -24 15 -25 17 -8 24 25 9 34 2 34 -22z
m484 17 c-3 -8 -13 -12 -25 -9 -32 9 -32 23 0 23 22 0 29 -4 25 -14z m-428
-38 c-22 -32 -20 -48 12 -82 l27 -29 -32 22 c-42 29 -46 36 -32 62 9 17 8 23
-2 30 -11 7 -10 9 4 9 10 0 21 8 24 17 4 10 8 12 11 5 2 -6 -4 -22 -12 -34z
m54 28 c0 -8 10 -17 23 -19 19 -4 19 -4 -5 -6 -28 -1 -52 -41 -29 -49 6 -2 11
-10 11 -17 0 -10 -5 -11 -25 -2 -28 14 -30 24 -10 51 8 11 15 28 15 38 0 10 5
18 10 18 6 0 10 -6 10 -14z m309 -23 c-1 -34 -2 -35 -9 -13 -11 36 -11 50 0
50 6 0 10 -17 9 -37z m673 -1 c3 -9 2 -26 -2 -37 -4 -11 -3 -26 4 -34 8 -11 8
-13 -1 -7 -10 5 -13 -6 -14 -43 -2 -68 -2 -71 -14 -71 -12 -1 -26 83 -15 90
14 10 31 80 25 100 -3 11 -2 20 3 20 5 0 12 -8 14 -18z m-582 4 c0 -2 -8 -10
-17 -17 -16 -13 -17 -12 -4 4 13 16 21 21 21 13z m538 -49 c-6 -34 -23 -22
-26 18 -2 38 -1 39 13 20 9 -11 14 -28 13 -38z m-864 -34 c0 -26 -13 -67 -33
-108 -18 -36 -31 -71 -28 -78 4 -13 -16 -37 -32 -37 -6 0 -11 5 -11 10 0 6 7
10 15 10 8 0 15 5 15 10 0 6 -9 10 -19 10 -20 0 -31 -18 -31 -51 0 -23 -4 -23
-39 -3 -19 11 -40 44 -67 102 -51 112 -50 109 -29 92 10 -8 33 -48 52 -89 l33
-74 28 26 c15 14 39 30 53 36 41 15 76 130 48 158 -16 16 -1 35 24 31 19 -3
22 -9 21 -45z m65 1 c5 -7 7 -14 4 -18 -8 -7 -43 39 -43 56 1 8 6 5 15 -7 8
-11 19 -25 24 -31z m205 27 c8 -12 -17 -61 -31 -61 -6 0 -15 4 -18 10 -3 5 0
7 8 4 19 -7 31 25 16 42 -9 11 -8 14 4 14 9 0 18 -4 21 -9z m236 -17 c42 -28
42 -46 -1 -57 -16 -4 -18 -3 -8 9 20 25 -8 47 -53 41 -21 -3 -38 -2 -38 2 0 6
11 12 58 30 1 1 20 -11 42 -25z m-140 -23 c-8 -6 -18 -7 -23 -4 -4 3 -17 -3
-28 -13 -20 -18 -23 -16 -13 10 4 11 18 16 43 16 26 0 32 -3 21 -9z m475 -59
c-8 -9 -15 3 -20 39 l-6 34 16 -34 c8 -19 13 -36 10 -39z m-380 48 c3 -5 -1
-10 -9 -10 -8 0 -18 5 -21 10 -3 6 1 10 9 10 8 0 18 -4 21 -10z m118 -12 c-4
-7 -14 -29 -20 -48 -7 -19 -11 -24 -8 -10 3 14 5 35 5 48 0 13 6 22 16 22 10
0 12 -4 7 -12z m147 -18 c18 23 20 24 20 4 0 -27 -24 -59 -38 -50 -6 4 -21 21
-33 39 l-23 32 28 -25 27 -25 19 25z m-1010 -26 c0 -14 14 -45 30 -69 17 -24
33 -59 35 -77 3 -18 2 -26 -1 -18 -4 8 -21 35 -38 59 l-31 44 -5 -54 c-5 -48
-7 -51 -14 -26 -10 34 2 179 15 171 5 -3 9 -16 9 -30z m318 19 c-15 -18 -44
-116 -42 -140 1 -7 -2 -10 -7 -7 -5 3 -9 -4 -9 -15 0 -22 14 -28 77 -36 63 -7
63 -7 134 -52 43 -27 71 -38 78 -32 7 6 8 5 2 -2 -6 -7 -5 -25 3 -48 11 -32
10 -40 -10 -76 -65 -113 -72 -132 -79 -208 -4 -42 -11 -80 -15 -82 -8 -5 -4
85 4 125 15 66 49 176 62 195 23 36 10 85 -22 85 -14 0 -27 6 -30 14 -13 34
-57 50 -129 47 -64 -2 -73 0 -94 23 -20 21 -21 26 -9 31 10 4 18 25 22 58 8
60 44 137 65 137 12 0 11 -3 -1 -17z m368 0 c-4 -4 -26 -15 -49 -23 -33 -12
-42 -22 -49 -49 -12 -44 -6 -58 31 -66 17 -4 34 -11 37 -17 11 -17 -67 -2 -84
16 -34 34 -3 113 53 136 25 11 71 13 61 3z m269 -27 c14 -19 39 -39 56 -45 16
-5 29 -12 29 -14 0 -8 -39 0 -53 11 -7 7 -17 10 -20 7 -4 -3 -5 -2 -2 2 3 3
-10 17 -27 30 -28 20 -33 21 -41 8 -9 -16 15 -60 26 -49 11 11 0 -117 -18
-200 -9 -43 -14 -85 -11 -93 3 -8 2 -12 -3 -9 -11 7 -64 -50 -57 -62 4 -6 -2
-8 -14 -5 -26 7 -25 11 4 34 13 11 35 40 48 67 20 40 23 62 22 149 0 68 -5
107 -13 117 -9 10 -11 28 -7 51 9 48 45 48 81 1z m145 -47 c8 -28 21 -46 42
-59 26 -16 29 -20 15 -26 -9 -3 -22 0 -29 8 -31 33 -78 122 -78 145 1 29 38
-21 50 -68z m-231 -106 l-1 -78 -18 80 c-11 44 -19 88 -19 98 -1 15 1 15 19
-3 17 -17 20 -33 19 -97z m281 98 c6 -13 6 -22 1 -26 -9 -5 -31 24 -31 39 0
14 20 4 30 -13z m50 -55 c-14 -14 -22 -2 -14 18 5 14 9 15 15 4 4 -7 4 -17 -1
-22z m-452 -61 c-3 -3 -9 2 -12 12 -6 14 -5 15 5 6 7 -7 10 -15 7 -18z m-44 9
c10 -4 16 -17 15 -38 -1 -17 -3 -24 -6 -15 -2 9 -25 25 -51 36 l-47 21 37 1
c20 1 43 -2 52 -5z m-541 -42 c57 -38 56 -47 -1 -12 -27 16 -57 30 -66 30 -9
0 -16 5 -16 11 0 15 38 2 83 -29z m-120 -84 c56 -107 105 -180 118 -173 5 3 6
0 4 -7 -3 -8 5 -23 18 -35 14 -11 32 -34 42 -49 18 -32 61 -57 79 -47 6 3 8 3
4 -2 -7 -7 26 -38 42 -41 16 -2 80 -39 80 -46 0 -4 6 -8 13 -8 6 0 23 -9 37
-20 36 -28 45 -25 64 23 9 23 24 52 34 65 18 23 19 23 110 11 51 -7 92 -16 92
-21 0 -4 -26 -8 -57 -8 -95 0 -154 -53 -123 -110 17 -31 5 -36 -26 -11 -17 13
-41 21 -66 21 -45 0 -69 11 -116 51 -18 16 -41 29 -52 29 -11 0 -37 18 -59 40
-22 22 -46 40 -54 40 -8 0 -31 18 -50 39 -19 22 -44 42 -56 46 -20 6 -24 14
-36 73 -4 18 -17 43 -30 56 -13 13 -27 41 -31 62 -4 22 -15 56 -25 76 -11 21
-19 41 -19 45 0 16 21 -16 63 -99z m187 82 c0 -5 -7 -7 -15 -4 -8 4 -12 10 -9
15 6 11 24 2 24 -11z m198 -40 c7 0 12 -6 12 -14 0 -13 -4 -13 -27 0 -16 7
-47 14 -70 14 -23 0 -44 4 -47 9 -4 5 11 7 33 4 24 -3 41 -1 46 7 5 8 12 7 24
-4 10 -9 23 -16 29 -16z m303 -91 c19 -28 19 -28 0 -26 -11 0 -18 4 -15 8 2 4
-5 10 -16 14 -16 5 -18 10 -10 25 6 10 11 34 12 52 1 31 2 30 5 -6 3 -22 13
-52 24 -67z m114 44 c-9 -15 -14 -20 -11 -10 4 11 9 31 13 45 5 19 8 22 11 10
2 -9 -4 -29 -13 -45z m-590 -14 c-7 -39 -5 -42 49 -92 40 -37 56 -59 56 -77 0
-24 -2 -22 -42 20 -24 25 -42 47 -41 49 1 2 -9 15 -23 29 -13 15 -24 36 -24
48 0 12 -3 36 -6 54 -7 31 -6 32 15 20 20 -10 22 -17 16 -51z m565 -46 c0 -24
-30 -13 -45 17 -27 52 -19 68 15 30 16 -19 29 -41 30 -47z m-320 47 c0 -18 -2
-19 -20 -8 -11 7 -20 16 -20 20 0 5 9 8 20 8 13 0 20 -7 20 -20z m-158 -63
c44 -58 56 -82 60 -122 4 -27 11 -51 17 -53 6 -2 11 -18 10 -35 l0 -32 -19 40
c-10 22 -19 57 -19 77 -1 33 -30 81 -72 118 -23 21 -50 80 -35 80 2 0 28 -33
58 -73z m521 -32 c-3 -9 -8 -14 -10 -11 -3 3 -2 9 2 15 9 16 15 13 8 -4z
m-403 -43 c0 -10 -7 -27 -15 -38 -13 -17 -14 -16 -5 16 6 19 10 36 10 37 0 2
2 3 5 3 3 0 5 -8 5 -18z m655 -32 c-3 -5 -12 -10 -18 -10 -7 0 -6 4 3 10 19
12 23 12 15 0z m-716 -122 c6 -18 7 -28 2 -23 -10 12 -25 55 -18 55 3 0 10
-15 16 -32z m421 -17 c0 -12 -20 -25 -27 -18 -7 7 6 27 18 27 5 0 9 -4 9 -9z"/>
<path d="M1225 945 c-22 -21 -25 -33 -25 -92 0 -37 9 -112 20 -166 11 -55 20
-139 20 -188 0 -70 5 -99 21 -135 52 -109 107 -131 359 -144 96 -5 204 -12
240 -15 36 -3 99 0 140 6 41 6 107 13 147 16 56 4 70 8 66 19 -6 17 -59 18
-134 3 -77 -15 -466 3 -536 25 -60 19 -141 80 -183 137 -16 22 -41 77 -57 122
-27 79 -28 89 -26 260 1 193 -2 203 -52 152z"/>
<path d="M1084 899 c-4 -19 -7 -149 -6 -291 l1 -256 -41 -40 c-58 -57 -132
-77 -255 -68 -70 5 -93 4 -93 -5 0 -9 34 -11 135 -7 115 5 141 9 182 29 67 34
108 97 117 180 10 107 -3 462 -19 478 -11 11 -14 8 -21 -20z"/>
<path d="M1552 803 c5 -32 13 -62 19 -67 16 -17 10 -27 -10 -16 -68 36 -151
-14 -151 -90 0 -86 56 -157 117 -147 20 4 52 -3 90 -19 129 -53 192 -13 147
94 -9 23 -13 50 -9 70 4 20 1 39 -6 48 -6 8 -10 15 -8 17 2 1 17 9 33 17 32
17 49 49 36 70 -14 23 -92 16 -145 -13 l-47 -27 7 33 c4 17 9 41 12 53 4 17
-1 22 -27 28 -67 13 -68 12 -58 -51z m58 27 c0 -5 -4 -10 -10 -10 -14 0 -13
-37 1 -42 6 -2 9 -15 7 -28 l-4 -25 -11 25 c-6 14 -14 40 -18 58 -6 28 -4 32
14 32 12 0 21 -4 21 -10z m170 -81 c0 -13 -11 -25 -35 -35 -41 -17 -120 -19
-109 -3 3 6 19 8 38 5 35 -7 118 34 84 42 -9 2 -31 -4 -48 -13 -40 -21 -52
-12 -13 9 42 23 83 21 83 -5z m-263 -64 c21 -9 41 -21 45 -28 5 -8 34 -12 80
-12 l72 0 9 -40 c19 -90 20 -115 3 -121 -19 -7 -101 23 -118 44 -11 12 -7 12
20 -2 22 -11 44 -15 62 -11 26 6 28 9 19 31 -5 14 -9 41 -9 60 l0 34 -42 -6
c-24 -3 -49 -7 -56 -10 -7 -2 -30 7 -50 19 -20 13 -42 26 -48 30 -7 4 -19 -4
-28 -18 -15 -22 -15 -31 -5 -60 9 -23 20 -35 36 -37 16 -2 20 -7 14 -16 -7
-12 -12 -12 -30 -1 -42 27 -67 119 -39 147 15 15 21 15 65 -3z m53 -125 c13
-8 13 -10 -2 -10 -9 0 -20 5 -23 10 -8 13 5 13 25 0z"/>
</g>
</svg>
