<?xml version="1.0" standalone="no"?>
<!DOCTYPE svg PUBLIC "-//W3C//DTD SVG 20010904//EN"
 "http://www.w3.org/TR/2001/REC-SVG-20010904/DTD/svg10.dtd">
<svg version="1.0" xmlns="http://www.w3.org/2000/svg"
 width="256.000000pt" height="256.000000pt" viewBox="0 0 256.000000 256.000000"
 preserveAspectRatio="xMidYMid meet">
<metadata>
Created by potrace 1.14, written by Peter Selinger 2001-2017
</metadata>
<g transform="translate(0.000000,256.000000) scale(0.100000,-0.100000)"
fill="#000000" stroke="none">
<path d="M1065 2469 c-212 -33 -238 -40 -279 -69 -22 -17 -45 -30 -52 -30 -6
0 -65 -54 -132 -119 -128 -126 -131 -132 -130 -231 0 -36 -32 -120 -47 -120
-32 0 -24 -277 10 -339 26 -47 85 -184 85 -196 0 -19 69 -105 85 -105 8 0 27
-11 42 -25 108 -97 219 -164 309 -186 27 -7 60 -18 74 -25 27 -13 76 -8 86 8
3 5 -4 16 -15 25 -15 10 -21 23 -19 41 3 25 7 28 78 38 77 11 117 26 136 52
11 15 12 15 181 -4 60 -7 62 -6 106 31 28 24 52 54 62 82 9 24 36 67 59 96 67
82 78 110 87 227 4 58 13 139 18 180 6 41 11 100 11 132 0 50 -4 61 -35 98
-19 23 -38 54 -41 69 -9 35 -33 61 -58 61 -13 0 -33 16 -50 40 -16 22 -47 53
-68 70 -21 17 -36 35 -33 40 8 13 -107 107 -151 123 -33 12 -102 25 -234 42
-14 1 -52 -1 -85 -6z m206 -37 c110 -16 120 -33 14 -24 -110 9 -147 9 -300 0
-83 -5 -106 -4 -75 2 25 6 72 16 105 24 61 15 134 15 256 -2z m-415 -39 c-2
-5 -55 -46 -118 -92 -95 -71 -120 -96 -161 -158 -26 -40 -47 -78 -47 -83 0 -6
-7 -10 -16 -10 -12 0 -14 7 -8 33 15 68 276 314 337 316 10 1 16 -2 13 -6z
m594 -74 c-19 -4 -39 -4 -45 -1 -12 8 56 20 70 13 5 -3 -6 -8 -25 -12z m-82
-34 c-15 -9 -35 -32 -45 -53 -13 -28 -19 -32 -21 -18 -4 21 54 86 77 86 10 -1
5 -7 -11 -15z m-524 -36 l41 -1 -50 -13 c-27 -7 -71 -14 -97 -14 -37 -1 -54
-7 -81 -31 -58 -50 -54 -33 4 20 51 48 56 50 98 45 24 -3 62 -6 85 -6z m433
-14 c-4 -8 -14 -15 -23 -15 -16 0 -16 2 1 20 20 22 31 20 22 -5z m-387 -37 c0
-39 -14 -50 -33 -28 -22 26 -22 37 1 43 30 8 32 7 32 -15z m271 -18 c5 0 9 -7
9 -15 0 -21 -14 -19 -36 7 -18 20 -18 21 -1 15 10 -4 23 -7 28 -7z m139 6 c0
-9 -30 -14 -35 -6 -4 6 3 10 14 10 12 0 21 -2 21 -4z m-559 -43 c13 -15 12
-15 -8 -4 -24 12 -29 21 -14 21 5 0 15 -7 22 -17z m313 -10 c-7 -31 -21 -50
-29 -41 -5 5 26 68 33 68 1 0 -1 -12 -4 -27z m155 8 c-27 -22 -32 -21 -23 3 3
9 15 16 26 16 19 0 19 -1 -3 -19z m-321 -100 c-37 -33 -52 -32 -21 2 27 29 43
60 45 89 1 13 3 4 5 -19 4 -37 0 -46 -29 -72z m232 105 c0 -2 -9 -6 -20 -9
-11 -3 -20 -1 -20 4 0 5 9 9 20 9 11 0 20 -2 20 -4z m-395 -31 c33 -26 23 -34
-12 -10 -14 10 -24 12 -28 5 -12 -20 -26 -10 -15 10 14 26 19 25 55 -5z m150
-6 c-3 -13 -15 -35 -25 -49 l-20 -25 -34 40 c-37 44 -39 60 -3 28 40 -36 46
-36 62 3 16 40 30 42 20 3z m857 -51 c36 -76 41 -135 28 -325 -11 -162 -13
-170 -46 -233 -19 -36 -52 -102 -74 -147 -29 -60 -47 -86 -70 -98 -16 -8 -30
-22 -30 -30 0 -19 -46 -19 -80 0 -14 8 -36 15 -50 16 -14 0 3 7 37 15 106 23
134 42 170 120 137 295 133 282 133 469 l0 165 -33 37 c-19 21 -36 48 -39 60
-11 42 28 8 54 -49z m-593 10 c-1 -21 -3 -26 -6 -13 -3 11 -12 26 -21 33 -14
11 -13 12 6 12 18 0 22 -5 21 -32z m485 -13 c-4 -8 -11 -15 -16 -15 -6 0 -5 6
2 15 7 8 14 15 16 15 2 0 1 -7 -2 -15z m-918 -32 c-7 -7 -26 7 -26 19 0 6 6 6
15 -2 9 -7 13 -15 11 -17z m334 2 c0 -9 -6 -12 -16 -8 -13 5 -13 7 -2 14 17
11 18 11 18 -6z m-486 -10 c-5 -12 -10 -13 -20 -4 -19 15 -18 19 6 19 13 0 18
-5 14 -15z m67 -18 c-10 -9 -11 -8 -5 6 3 10 9 15 12 12 3 -3 0 -11 -7 -18z
m49 18 c0 -4 -7 -20 -16 -37 -15 -29 -15 -32 0 -43 26 -20 18 -27 -9 -9 -24
16 -25 18 -10 40 8 13 15 30 15 39 0 8 5 15 10 15 6 0 10 -2 10 -5z m307 -27
c-3 -8 -6 -5 -6 6 -1 11 2 17 5 13 3 -3 4 -12 1 -19z m673 -6 c0 -15 -2 -15
-10 -2 -13 20 -13 33 0 25 6 -3 10 -14 10 -23z m-51 -30 c0 -30 -2 -33 -9 -17
-12 28 -12 67 0 60 6 -3 10 -23 9 -43z m-997 -17 c4 -20 2 -23 -8 -14 -7 6
-10 17 -7 25 7 20 10 18 15 -11z m146 -8 c2 -17 -9 -54 -27 -91 -16 -34 -32
-73 -36 -87 -5 -19 -13 -25 -32 -24 -22 0 -28 -6 -35 -33 l-9 -33 -27 21 c-24
19 -63 85 -93 159 -8 20 -7 22 5 12 8 -7 27 -41 42 -76 16 -36 32 -65 37 -65
5 0 25 14 44 30 18 17 40 30 48 30 7 0 20 21 28 48 24 74 30 112 18 112 -6 0
-11 7 -11 16 0 10 7 14 23 12 16 -2 23 -11 25 -31z m42 0 c0 -5 -4 -5 -10 -2
-5 3 -10 14 -10 23 0 15 2 15 10 2 5 -8 10 -19 10 -23z m461 -8 c30 -21 38
-39 16 -39 -7 0 -18 9 -25 20 -7 12 -23 20 -38 20 -14 0 -23 4 -19 10 10 16
34 12 66 -11z m382 -52 c-3 -37 -10 -67 -16 -67 -5 0 -7 12 -4 27 3 15 1 36
-4 45 -6 12 -6 18 0 18 6 0 13 11 17 25 11 43 14 22 7 -48z m-546 37 c-3 -3
-12 -4 -19 -1 -8 3 -5 6 6 6 11 1 17 -2 13 -5z m480 -16 c-3 -8 -6 -5 -6 6 -1
11 2 17 5 13 3 -3 4 -12 1 -19z m-362 2 c3 -5 -1 -10 -9 -10 -9 0 -16 5 -16
10 0 6 4 10 9 10 6 0 13 -4 16 -10z m-745 -62 c0 -9 14 -40 32 -67 42 -69 31
-74 -15 -8 -25 36 -37 64 -37 88 0 26 3 30 10 19 5 -8 10 -23 10 -32z m320 38
c0 -3 -4 -8 -10 -11 -5 -3 -10 -1 -10 4 0 6 5 11 10 11 6 0 10 -2 10 -4z m527
-18 c-3 -8 -6 -5 -6 6 -1 11 2 17 5 13 3 -3 4 -12 1 -19z m169 -14 c-17 -25
-18 -25 -37 -8 -10 9 -19 22 -19 27 0 6 8 3 18 -6 16 -15 19 -15 31 4 7 12 15
18 18 15 3 -3 -2 -17 -11 -32z m101 14 c-3 -8 -6 -5 -6 6 -1 11 2 17 5 13 3
-3 4 -12 1 -19z m-447 4 c0 -5 -17 -14 -39 -20 -40 -12 -51 -30 -51 -83 0 -21
7 -28 33 -37 28 -9 29 -10 8 -11 -58 -2 -83 75 -38 117 32 30 87 51 87 34z
m272 -9 c28 -25 21 -37 -8 -14 -25 20 -27 20 -40 4 -12 -17 -13 -16 -14 5 0
27 34 30 62 5z m148 -47 c16 -36 40 -72 52 -80 15 -11 17 -16 8 -16 -14 0 -33
24 -79 101 -20 35 -27 59 -15 59 3 0 18 -29 34 -64z m-796 17 c-9 -39 -40
-132 -46 -138 -9 -9 18 110 32 138 7 15 15 27 17 27 2 0 0 -12 -3 -27z m621
-146 l-10 -72 -3 79 c-2 47 -9 87 -17 100 -9 13 -12 26 -8 29 3 4 16 -9 27
-28 20 -32 21 -41 11 -108z m235 85 c0 -15 -2 -15 -10 -2 -13 20 -13 33 0 25
6 -3 10 -14 10 -23z m-1173 -29 c-3 -10 -5 -2 -5 17 0 19 2 27 5 18 2 -10 2
-26 0 -35z m889 13 c3 -13 4 -42 2 -67 -3 -44 -3 -44 -19 27 -12 58 -13 71 -2
67 7 -3 16 -15 19 -27z m-160 -80 c32 -24 9 -29 -33 -7 -35 18 -36 20 -12 21
14 0 34 -6 45 -14z m-373 -7 c40 -7 79 -19 87 -27 13 -14 13 -15 0 -5 -8 6
-45 9 -82 8 -55 -3 -72 0 -90 15 -29 24 -18 25 85 9z m-329 -45 c3 -8 2 -12
-4 -9 -6 3 -10 10 -10 16 0 14 7 11 14 -7z m476 -13 c26 -15 28 -19 13 -23
-12 -3 -25 4 -36 19 -22 28 -17 29 23 4z m-75 -1 c4 -6 -7 -10 -27 -10 -25 0
-29 3 -18 10 19 13 37 13 45 0z m-152 -78 c-5 -35 -1 -41 51 -89 31 -29 56
-60 56 -70 -1 -18 -33 14 -95 92 -28 36 -48 138 -23 117 11 -9 15 -24 11 -50z
m292 13 c14 -33 14 -36 -26 -107 -34 -61 -40 -67 -35 -38 4 19 16 54 27 77 14
30 19 52 14 73 -9 41 3 38 20 -5z m-480 -43 c16 -31 62 -97 102 -147 40 -49
70 -91 67 -94 -2 -3 -24 15 -48 38 -24 24 -55 48 -67 55 -18 9 -26 23 -30 55
-3 25 -14 50 -25 60 -19 15 -44 62 -44 81 0 24 17 5 45 -48z m435 43 c0 -9 -6
-12 -16 -8 -13 5 -13 7 -2 14 17 11 18 11 18 -6z m311 -37 c6 -10 5 -19 -1
-23 -9 -6 -50 50 -50 69 0 12 39 -23 51 -46z m-87 9 c17 -28 17 -28 -3 -17
-12 6 -21 20 -21 32 0 12 1 19 3 17 2 -2 11 -17 21 -32z m166 21 c0 -7 -9 -24
-21 -38 l-20 -25 18 37 c19 41 23 45 23 26z m-531 -90 c23 -34 41 -66 41 -72
0 -6 -9 5 -21 24 -12 19 -36 51 -54 70 -17 19 -35 44 -39 54 -7 19 -6 19 13 2
11 -10 38 -45 60 -78z m91 -75 c-11 -17 -11 -17 -6 0 3 10 6 24 7 30 0 9 2 9
5 0 3 -7 0 -20 -6 -30z m-41 -68 c0 -5 -4 -3 -9 5 -5 8 -9 22 -9 30 0 16 17
-16 18 -35z m20 -48 c0 -21 -1 -21 -9 -2 -12 28 -12 37 0 30 6 -3 10 -16 9
-28z m-94 -52 c22 -13 71 -41 108 -62 52 -28 64 -39 48 -41 -12 -2 -44 13 -77
37 -31 22 -71 45 -89 51 -18 6 -36 17 -39 25 -7 20 2 18 49 -10z m391 5 c25
-7 22 -8 -23 -9 -86 -2 -135 -60 -103 -122 14 -25 5 -24 -20 1 -11 11 -27 20
-35 20 -18 0 -18 -1 1 45 34 81 42 88 100 80 28 -3 65 -10 80 -15z"/>
<path d="M1237 962 c-15 -9 -31 -28 -34 -41 -9 -35 3 -222 17 -256 6 -16 14
-84 17 -150 6 -136 23 -185 79 -234 43 -38 84 -50 219 -61 258 -21 446 -23
539 -5 49 9 102 14 118 11 23 -4 28 -2 28 13 0 27 -46 33 -135 16 -62 -12
-112 -13 -273 -5 -258 12 -322 31 -409 122 -50 53 -73 92 -103 183 -21 62 -24
86 -22 205 2 74 4 153 5 174 2 46 -8 52 -46 28z"/>
<path d="M1078 858 c-2 -46 -3 -178 -3 -294 0 -239 2 -231 -85 -283 -43 -25
-52 -26 -177 -26 -91 0 -133 -4 -133 -11 0 -13 124 -25 189 -18 106 11 151 27
188 63 69 70 73 87 73 361 0 206 -2 249 -16 268 -26 38 -34 25 -36 -60z"/>
<path d="M1546 861 c-6 -9 7 -92 19 -123 6 -16 4 -16 -24 -7 -69 24 -134 -28
-134 -107 0 -81 78 -174 123 -146 14 8 31 5 79 -14 70 -29 131 -34 155 -15 20
17 21 68 1 113 -8 21 -12 50 -8 70 3 22 1 38 -7 43 -8 5 -1 13 19 26 17 10 37
31 43 45 11 23 10 28 -7 40 -28 21 -71 17 -127 -11 -28 -14 -52 -24 -54 -22
-2 2 1 19 6 38 17 59 18 58 -52 73 -15 3 -29 2 -32 -3z m51 -28 c-12 -3 -16
-11 -12 -31 4 -23 4 -24 -4 -7 -16 33 -12 45 12 44 16 -1 18 -2 4 -6z m13 -84
c0 -6 -4 -7 -10 -4 -5 3 -10 11 -10 16 0 6 5 7 10 4 6 -3 10 -11 10 -16z m130
17 c0 -2 -7 -7 -16 -10 -8 -3 -12 -2 -9 4 6 10 25 14 25 6z m26 -42 c-11 -8
-27 -14 -35 -14 -9 0 -3 8 14 19 34 21 50 17 21 -5z m-221 -60 l30 -25 -42 23
c-42 23 -42 23 -57 3 -27 -36 -13 -99 26 -114 13 -4 17 -10 11 -14 -16 -10
-61 48 -69 88 -12 66 44 88 101 39z m132 -20 c-3 -3 -12 -4 -19 -1 -8 3 -5 6
6 6 11 1 17 -2 13 -5z m59 -111 c8 -40 -11 -51 -59 -35 l-32 10 39 1 c35 1 38
3 31 24 -14 44 -17 77 -9 94 5 14 9 9 15 -22 5 -22 11 -55 15 -72z m-101 -13
c3 -6 -1 -7 -9 -4 -18 7 -21 14 -7 14 6 0 13 -4 16 -10z"/>
</g>
</svg>
