<?xml version="1.0" standalone="no"?>
<!DOCTYPE svg PUBLIC "-//W3C//DTD SVG 20010904//EN"
 "http://www.w3.org/TR/2001/REC-SVG-20010904/DTD/svg10.dtd">
<svg version="1.0" xmlns="http://www.w3.org/2000/svg"
 width="325.000000pt" height="325.000000pt" viewBox="0 0 325.000000 325.000000"
 preserveAspectRatio="xMidYMid meet">
<metadata>
Created by potrace 1.14, written by Peter Selinger 2001-2017
</metadata>
<g transform="translate(0.000000,325.000000) scale(0.100000,-0.100000)"
fill="#000000" stroke="none">
<path d="M1260 2607 c0 -206 -3 -455 -7 -555 l-6 -182 -391 -2 -391 -3 -6 -40
c-4 -22 -9 -62 -10 -90 l-3 -50 44 -1 c25 -1 549 -4 1165 -8 616 -4 1135 -10
1154 -13 l34 -6 -6 79 c-11 134 14 120 -235 127 -119 4 -435 7 -700 7 l-484 0
7 555 8 555 -87 0 -86 0 0 -373z"/>
<path d="M14 1871 c-2 -2 -4 -94 -4 -203 l0 -198 188 0 187 0 0 143 c0 78 3
168 8 199 l7 57 -191 3 c-105 2 -193 1 -195 -1z"/>
<path d="M2884 1843 c14 -36 27 -223 21 -300 l-7 -83 171 0 171 0 0 200 0 200
-181 0 c-164 0 -181 -2 -175 -17z"/>
<path d="M444 1568 c4 -44 9 -85 12 -90 3 -4 183 -8 400 -8 l394 0 -6 -490 -7
-490 85 0 85 0 6 167 c4 91 7 312 7 490 l0 323 709 -6 708 -6 7 82 c4 45 6 84
4 86 -4 3 -1957 23 -2317 24 l-94 0 7 -82z"/>
</g>
</svg>
